<?xml version="1.0" encoding="UTF-8" standalone="no"?>
<svg
   xmlns:dc="http://purl.org/dc/elements/1.1/"
   xmlns:cc="http://creativecommons.org/ns#"
   xmlns:rdf="http://www.w3.org/1999/02/22-rdf-syntax-ns#"
   xmlns:svg="http://www.w3.org/2000/svg"
   xmlns="http://www.w3.org/2000/svg"
   viewBox="0 0 1382.6667 685.33331"
   height="685.33331"
   width="1382.6667"
   xml:space="preserve"
   id="svg2"
   version="1.1"><metadata
     id="metadata8"><rdf:RDF><cc:Work
         rdf:about=""><dc:format>image/svg+xml</dc:format><dc:type
           rdf:resource="http://purl.org/dc/dcmitype/StillImage" /></cc:Work></rdf:RDF></metadata><defs
     id="defs6"><clipPath
       id="clipPath14"
       clipPathUnits="userSpaceOnUse"><path
         id="path12"
         d="M 0,0 H 514 V 1037 H 0 Z" /></clipPath></defs><g
     clip-path="url(#clipPath14)"
     transform="matrix(0,-1.3333333,-1.3333333,0,1382.6667,685.33333)"
     id="g10"><g
       transform="matrix(0.31718062,0,0,-0.31718062,0,1037)"
       id="g16"><g
         id="g18"><g
           id="g20" /></g><g
         id="g22"><g
           id="g24" /></g><g
         transform="matrix(3.1527779,0,0,-3.1527779,0,3269.4307)"
         id="g26"><g
           id="g28"><path
             id="path30"
             style="fill:#000000;fill-opacity:1;fill-rule:evenodd;stroke:none"
             d="m 293.70926,835.70923 -0.63437,-0.23786 -10.14978,-2.89428 -7.29517,-0.91187 -13.63876,0.31714 -8.56387,1.86347 -6.34362,2.25988 -2.85461,1.22907 -9.9912,5.23352 -9.99119,6.8194 -8.72246,6.81933 -1.11014,0.7533 -0.87224,0.27759 -0.47576,1.1101 -1.18944,0.87226 -3.64757,3.01318 -10.62555,10.62555 -13.79736,16.96918 -6.81938,9.67401 -14.74891,26.16742 -0.95153,2.22027 -6.62116,16.81055 -1.94272,6.66077 -0.1586,1.11016 -0.79295,0.79297 -0.47577,0.15857 -2.85463,1.54627 -0.87224,0.27752 -0.15858,0.47577 -0.71367,0.0793 -1.11012,1.11011 -0.0793,0.47583 v 1.58587 l 0.0793,0.47577 0.79295,0.79297 h 0.31717 l 0.47577,0.47577 0.0793,0.39648 1.03084,0.0793 0.95153,-0.95154 h 0.63437 l 0.63436,-0.6344 0.1586,0.15863 -1.70485,11.25989 -0.0396,18.07928 0.95153,6.02643 0.63436,2.22028 0.63437,1.58593 1.11012,2.06163 1.74451,1.7445 1.11012,0.3568 3.48898,0.04 0.95155,-0.2775 1.90308,-0.912 1.74449,-1.1101 3.64759,-3.64753 7.29515,-10.14978 12.17181,-22.36127 1.62555,-3.80615 1.58589,-3.80615 0.2379,-0.87226 2.14096,-0.55505 131.15419,-25.53308 0.79294,-0.79291 v -0.6344 l -0.47577,-0.47577 -0.79294,-0.15857 -1.26873,-0.0793 -49.163,7.69159 -80.72246,16.96917 -0.15858,-0.15857 0.31717,-0.3172 0.1586,-0.79296 3.09251,-7.85022 144.23787,-33.54181 0.95154,-0.35688 0.59473,-0.0396 -0.43613,24.02643 -2.53745,14.90747 -0.95153,4.12335 -1.26874,4.44056 -3.52863,9.51538 -1.54626,3.17181 -2.06165,3.33044 -2.85464,3.80616 -1.11014,1.1101 -1.58588,0.95154 -0.79297,0.79297 0.0793,0.71369 0.39648,0.0793 0.3172,0.31714 0.95154,-0.95154 1.58588,-0.95154 1.11014,-1.1101 2.85464,-3.80616 1.74448,-2.69604 1.54626,-2.85462 5.70926,-16.4934 3.76651,-24.42292 v -18.3172 l 7.21585,-2.1806 2.45816,-1.14978 0.23789,-0.87225 0.35681,-0.95154 0.11895,-0.47577 -0.47576,-0.47577 h -0.31717 l -0.95157,-0.95154 -4.59909,0.23786 -4.59912,0.71368 -0.47577,-0.47577 -0.4758,-3.96478 -1.58588,-6.66077 -1.30838,-4.44055 -2.22027,-6.02643 -1.22907,-2.85461 -5.23349,-9.35681 -2.69601,-4.28193 -9.51545,-12.05291 -3.96475,-4.59912 -1.11014,-1.11011 -6.81936,-5.55066 -2.06168,-1.42731 -8.0881,-4.24231 -0.95154,-0.39648 m -100.94273,108.43616 -0.11895,0.87225 -3.05287,7.85022 -1.66519,0.39648 -0.1586,-0.15863 0.31718,-0.31714 v -0.6344 l -0.47576,-0.47576 -3.01322,0.83258 -3.17181,1.18945 -1.26873,0.35681 -0.95153,0.35687 -0.47577,0.1189 -0.47577,0.47577 -0.31719,1.26874 1.11014,1.11017 8.96034,-0.91193 -0.0396,0.59473 -2.57709,6.02642 -0.67401,1.58588 -12.48898,22.67841 -6.97798,9.51544 -2.69603,2.69604 -0.63437,0.3172 -1.74449,1.11008 -1.26872,0.5947 -0.95154,0.3172 -2.22026,-0.04 -1.11014,-0.3964 -0.79295,-0.793 -0.31719,-0.6343 -1.11012,-1.74451 -0.63437,-1.58588 -1.22907,-6.02643 -0.27754,-18.07935 2.06168,-13.87664 5.31277,-2.41846 34.25551,-12.09253 0.87226,-0.0793 m 20.29956,-79.92951 v 0.55506 l -3.88547,22.51983 -13.2423,49.08368 -30.68722,10.70483 -10.46697,4.44056 -0.47577,0.15857 -0.15858,-0.15857 0.31718,-0.3172 0.15859,-1.11011 1.26872,-4.12335 6.02643,-14.27314 0.67401,-1.58593 9.1586,-17.12775 10.78414,-16.17621 14.7489,-17.92071 10.62555,-10.62555 5.15419,-4.04401 m 80.32597,-24.66083 7.61233,2.89429 0.79297,0.4361 6.02643,3.80621 5.07489,4.12335 1.11014,1.11011 11.10132,13.95593 7.45373,12.52863 3.48899,8.8811 1.90307,6.34357 1.26874,5.70929 0.47577,3.96472 0.31717,0.3172 -0.15857,0.15857 -1.42731,0.15863 -139.24231,31.40088 -0.95154,0.35681 -0.55506,0.0397 0.0396,-0.55511 0.35683,-0.95154 8.24669,-28.22907 3.80617,-16.1762 4.12335,-23.78852 0.15858,-3.40973 0.95156,-0.55505 7.61232,-5.70923 9.67401,-6.5022 4.28193,-2.3789 0.47579,-0.15857 0.63435,-0.63434 0.79296,-0.19824 6.02642,-2.815 5.70926,-2.22028 8.88105,-2.53741 9.19824,-1.58594 h 14.27313 l 9.51541,1.90314 0.95154,0.31713" /></g><g
           id="g32"><path
             id="path34"
             style="fill:#000000;fill-opacity:1;fill-rule:evenodd;stroke:none"
             d="m 193.63876,699.51984 -2.22026,0.31714 -1.4273,1.42736 -0.39649,1.11011 v 1.58588 l 0.0793,0.47577 0.79295,0.79296 h 1.26873 l 0.63435,-0.63433 1.90309,-0.3172 0.47577,-0.47577 0.11894,-0.79297 v -1.58588 l -0.11894,-0.79297 -1.11014,-1.1101" /></g><g
           id="g36"><path
             id="path38"
             style="fill:#000000;fill-opacity:1;fill-rule:evenodd;stroke:none"
             d="m 268.17621,715.69604 h -0.95154 l -1.11014,1.11011 -0.11892,0.47577 -9.47577,28.14978 -20.85465,5.94715 -14.5903,1.86346 -10.78413,-0.3172 -1.58591,-0.27753 -3.48898,-0.95154 -1.58591,-0.63439 -4.12335,-2.22022 -2.14096,-1.50665 -1.18944,-1.82379 -0.9119,-1.90308 -0.27752,-0.95154 -0.0397,-4.12335 0.27753,-1.90308 0.35683,-1.26873 1.22908,-2.85462 1.4273,-2.69604 0.63437,-0.95154 0.95154,-1.26868 0.63436,-0.95154 3.01321,-3.01324 3.25111,-1.03082 v -0.79297 l -0.55507,-0.23786 -0.63436,-0.0793 -1.5859,0.47577 -1.11013,0.39648 -3.96476,3.96478 -0.47578,0.79297 -1.42731,2.06165 -2.02202,3.96478 -0.95155,2.53742 -0.67401,3.48901 v 2.22028 l 0.35684,2.22021 0.31717,1.26874 0.9119,2.22027 2.06167,3.33039 3.01322,3.01324 0.95153,0.63434 1.26873,0.95154 3.3304,1.70483 2.53744,0.99121 3.489,0.95154 4.44052,0.55505 13.95595,-0.23785 7.61233,-1.30841 11.73569,-3.44934 3.48898,-1.26868 0.79296,-0.15863 0.31717,-0.31714 0.1586,0.15857 -1.42733,5.86786 -7.65197,35.20703 -0.11895,1.42731 -0.47577,0.47577 -0.79295,0.15857 -28.86343,8.2467 -6.6608,0.91193 h -4.75771 l -4.12335,-0.6344 -3.1718,-0.91187 -3.17181,-1.26873 -2.69603,-1.74451 -0.63437,-0.31714 -0.47577,-0.47577 -0.15858,-0.47577 -0.27753,-0.6344 -0.35684,-1.26873 v -0.95154 l 0.67401,-2.53742 2.18062,-5.07489 9.99119,-18.23791 3.3304,-4.91626 0.95154,-1.26874 0.47577,-0.79297 0.79295,-0.79291 1.03084,-0.39648 v -0.79297 l -0.55507,-0.23791 h -0.63435 l -0.47579,0.15863 -1.74449,1.7445 -0.31717,0.63434 -7.45375,11.57709 -6.93832,13.32159 -0.67401,1.58588 -1.58591,3.80621 -0.23788,1.26868 0.0397,4.12335 0.35683,1.42731 0.63435,0.6344 0.95154,1.58587 1.74449,1.74451 0.95156,0.63434 1.26872,0.95154 3.01321,1.7445 4.44053,1.86347 3.48899,0.95154 7.45374,0.19824 0.1586,0.15857 -0.79295,0.79297 h -0.31719 l -0.47577,0.47577 -4.28193,5.23346 -1.42733,2.0617 -0.79295,1.42731 -0.23789,0.55505 -2.45814,0.91187 -3.80617,1.86346 -3.80617,2.53742 -4.59912,3.64758 -3.01321,3.01325 -0.79295,1.1101 -2.37885,3.01325 -0.47578,0.7929 -0.15859,0.47584 -0.63435,0.63433 -0.1586,0.79297 -0.55507,1.90308 -0.23789,2.37884 -0.31716,0.3172 0.31716,0.31714 0.23789,2.69605 0.91189,3.17181 0.27755,0.63434 1.11012,1.74451 0.47577,0.47577 2.69604,1.38769 1.26873,0.27753 h 5.39207 l 3.80617,-0.87226 4.44052,-1.62555 2.85463,-1.22906 6.6608,-3.48901 0.63435,-0.0396 1.26872,0.31714 3.17182,-0.0396 1.74449,-0.39648 0.63435,-0.6344 1.26872,-0.63434 1.11014,-1.11011 1.11012,-1.74451 1.86345,-3.80615 0.59472,-2.53747 v -4.75769 l -0.23789,-1.26874 -0.63437,-1.58588 -1.42731,-2.69604 -0.79295,-1.11017 -0.47577,-0.79291 -1.74449,-1.74451 -2.53744,-1.58593 -0.79296,-0.4361 -1.58591,-0.59473 -1.5859,-0.31713 h -6.5815 l 0.23789,-0.71369 0.63436,-0.95154 3.1718,-4.12335 3.01322,-3.01324 1.42732,-0.7533 0.95154,-0.35681 1.26872,-0.27753 2.85463,0.0397 0.63435,-0.0793 0.47577,-0.15857 0.47577,-0.47577 0.39649,-1.03082 23.23347,-7.37445 0.31718,-0.3172 0.15859,0.15857 0.19824,3.33044 0.27754,1.90308 0.63436,2.53741 0.79295,2.06171 0.47577,0.47577 0.71365,-0.0793 -0.11894,-1.18945 -1.22906,-3.80615 -0.27755,-1.90308 -0.19824,-3.64758 0.47579,-0.47577 0.47577,-0.11896 47.4185,-17.64319 0.47577,-0.47577 0.0793,-0.39648 0.71366,-0.0793 0.47576,-0.47577 -0.63433,-1.26874 -0.47577,-0.47577 -1.11014,-0.35681 -4.12335,-0.0397 -3.80619,0.87226 -38.69603,13.95599 -0.87223,0.0793 v -0.87226 l 1.98237,-11.41851 2.85463,-13.0044 4.67841,-17.36566 21.17181,-7.88983 20.61673,-8.48462 0.79297,-0.19824 1.11011,-1.11011 0.23791,-1.74451 -0.39648,-0.95154 -0.55509,-0.87225 -0.55505,-0.15857 -2.53744,-0.0397 -1.26874,0.27752 -6.97797,2.57715 -1.26871,0.55506 -2.22027,0.0793 -0.55506,0.19824 -0.0793,0.71363 -0.47577,0.47577 -0.47577,0.11895 -22.837,8.92072 -0.79294,0.15857 -0.3172,0.3172 -0.15857,-0.15857 0.15857,-0.79297 7.96917,-24.10571 0.55506,-1.26874 0.19824,-0.79297 0.47577,-0.47577 0.47577,0.47577 v 5.78857 h 0.87225 l 0.11896,-0.55505 -0.0396,-6.5022 -0.79297,-0.79297 m -66.29074,108.15857 0.15858,0.15863 -0.79295,3.01319 -0.23789,1.58587 v 5.39209 l 0.23789,1.90308 0.59471,2.22028 2.5771,5.39209 0.15859,0.47577 2.53744,2.53741 -0.15858,0.15863 -0.79296,0.15857 -6.97798,2.53748 -2.85461,0.63433 -10.14978,0.23786 -2.37886,-0.39643 -1.74449,-1.7445 -0.0793,-0.47577 -0.39647,-1.58594 v -2.22027 l 0.35682,-1.58588 0.31719,-0.95154 0.59471,-1.26874 1.11012,-1.7445 0.95156,-1.26868 0.63435,-0.95154 5.86784,-5.86786 0.95154,-0.63434 1.42732,-1.11016 3.80617,-2.53742 4.28194,-2.06171 m 10.62555,-1.1101 1.90307,0.67401 1.58591,0.91186 0.47577,0.15863 3.3304,3.33039 1.4273,2.69604 0.63437,1.58588 0.23789,0.95154 v 5.39209 l -0.23789,1.26873 -0.63437,1.58588 -0.15858,0.47577 -1.42731,1.42731 -1.42732,0.43615 -2.22026,0.0396 -5.07489,-0.67402 -1.58591,-0.3172 -0.95154,-0.31713 -1.26872,-0.59473 -1.74449,-1.11011 -0.47577,-0.47577 -0.47577,-0.79297 -0.79295,-1.11016 -0.43613,-0.79291 -0.31718,-0.95154 -0.63436,-3.48901 v -3.48896 l 1.07048,-5.23352 0.63437,-0.63434 v -0.31719 l 0.47577,-0.47577 3.64757,-0.47577 4.44054,0.3172" /></g><g
           id="g40"><path
             id="path42"
             style="fill:#000000;fill-opacity:1;fill-rule:evenodd;stroke:none"
             d="m 273.96475,363.66519 h -1.4273 l -0.59473,1.54627 -0.0793,0.63437 0.0793,4.12335 -0.27753,1.58587 -0.31717,1.26874 -0.79297,2.06168 -1.1101,1.11014 -0.47577,0.15856 -2.22028,0.95154 h -1.26874 l -1.2687,-0.31717 -1.90308,-0.31717 -1.58591,0.0793 -0.47577,0.0793 -1.11013,1.11014 -0.11896,0.47577 v 1.26874 l 0.51544,1.18942 0.39645,0.0793 0.63437,0.63436 3.96476,0.0793 0.95153,-0.23789 1.58591,-0.63433 1.26874,-0.63437 1.74447,-1.11014 0.79297,-0.79294 1.42731,-2.06167 0.9119,-1.90311 0.63437,-2.53745 0.35681,-2.53744 -0.0396,-4.75769 -0.19824,-0.59473" /></g><g
           id="g44"><path
             id="path46"
             style="fill:#000000;fill-opacity:1;fill-rule:evenodd;stroke:none"
             d="m 213.30397,392.48898 h -0.95155 l -2.69603,2.69605 -0.47577,0.79294 -1.90309,2.53744 -3.1718,5.39209 -0.9119,2.22025 -0.59471,2.53744 0.0793,5.23349 0.95154,0.95154 v 0.31717 l 1.11012,1.11014 3.01323,0.87225 h 0.63435 l 6.6608,-1.03082 7.29515,-1.90311 1.11014,-0.15857 0.15859,0.15857 -1.7445,1.74451 -2.85463,2.22024 -6.50219,6.50223 -6.18503,7.45374 -1.42731,2.06167 -1.38766,2.69605 -0.67401,2.22024 -0.35683,0.95154 0.0396,1.26874 -0.15858,0.47577 0.63435,0.63437 v 0.63433 l 0.47577,0.47577 1.74451,1.11014 0.63435,0.23789 1.58591,0.0793 1.26872,-0.3172 7.61233,-3.17181 19.6652,-9.19821 1.42732,-0.79297 0.15858,0.1586 -0.31718,0.31717 -0.0793,0.39648 -0.55506,0.23789 -7.45375,3.96475 -10.94273,7.77093 -19.18942,16.01761 -5.55066,5.55066 -1.38767,2.69605 -0.35682,0.95153 -0.47577,1.74451 0.31717,0.31717 -0.31717,0.31717 0.63435,2.22027 2.06168,2.06168 1.11014,0.39648 1.4273,0.23789 0.31719,0.31717 0.31717,-0.31717 2.37886,-0.19824 1.26872,-0.27753 6.34361,-1.90311 6.02643,-2.25988 0.47577,-0.11896 0.1586,0.1586 -4.12335,4.12335 -5.86785,7.13657 -2.22026,3.17178 -0.31718,0.63437 -0.15859,0.47577 -0.63436,0.63437 -0.15859,0.79293 -0.31718,0.95154 v 0.95157 l 0.1586,1.11011 0.63435,0.63437 v 0.3172 l 0.79295,0.79294 0.47577,0.11892 1.11014,0.19825 0.31717,0.31719 0.31718,-0.31719 1.42733,-0.19825 0.95153,-0.27752 1.58591,-0.63434 19.98238,-9.83261 21.40968,-11.89429 0.1586,0.1586 -10.94273,10.94272 -0.79296,0.4758 -0.95154,0.39645 -2.22027,-0.39645 -2.53745,0.0396 -1.58589,0.31717 -0.95155,0.31717 -1.90308,0.87225 -0.79295,0.19824 -0.63435,0.63437 -0.79296,0.47577 -10.30838,8.72247 -4.5991,4.59913 -7.29517,8.56387 -1.58589,2.22024 -2.06168,3.64759 -0.87225,2.22027 -0.35683,1.58588 0.11894,3.64758 0.63437,0.6344 0.71366,1.34802 1.18942,0.51539 2.06168,0.51544 0.15858,0.15857 -2.06168,2.0617 -6.02642,5.39203 -3.01322,3.01325 -0.79295,1.1101 -2.69603,3.33039 -0.63437,0.95154 -0.15858,0.15863 -3.01322,-3.01325 v -0.31714 l -5.55066,-5.55066 -12.68722,-10.78418 -3.48899,-2.53741 -3.3304,-2.06171 -3.17181,-1.26874 -1.26872,-0.27752 -2.22026,-0.0396 -1.58591,0.39648 -0.63435,0.23785 -0.63437,0.3172 -0.47577,0.15857 -1.74449,1.74451 -0.75331,1.42731 -0.63436,1.58594 -0.87225,4.44049 0.19824,13.32159 0.31719,1.90308 0.67401,2.53747 1.86343,4.44049 2.06168,3.64759 1.90307,2.53747 0.63437,0.95154 5.23348,5.23346 2.37886,1.74451 7.9295,4.75769 2.22028,0.95153 9.83259,3.76654 19.03084,4.79737 10.62555,1.7445 0.47577,0.47577 0.11894,0.47577 1.90309,6.02643 1.30837,6.97797 v 16.17621 l -1.26872,8.2467 -0.95154,4.12335 -6.6608,23.78852 -0.79295,6.81939 0.79295,0.79297 h 1.26872 l 0.79296,-0.79297 0.15858,-0.47577 3.52864,-9.83258 2.81497,-6.66083 9.67402,-17.60351 8.40528,-12.52863 5.39208,-6.97796 6.5022,-7.45374 3.96475,-3.96478 3.17181,-2.53742 1.26872,-1.26873 14.07488,0.0396 -0.47577,10.42731 0.75333,4.44055 0.87222,2.22027 0.3172,0.63434 0.15857,0.47577 1.42734,1.42731 h 1.2687 l 0.31717,0.3172 0.63437,-0.63434 0.3172,0.31714 0.31717,-0.31714 0.47577,-0.11896 0.95154,-0.39648 0.47577,-0.11896 1.4273,-1.42731 0.3172,-0.63434 1.11014,-1.7445 0.9119,-1.90308 0.63434,-2.53747 0.43612,-3.17176 v -0.6344 l -0.71365,-3.48895 -0.67401,-1.90308 -0.27753,-0.63439 -0.1586,-0.47577 -0.31717,-0.3172 0.1586,-0.15857 35.04843,-3.64759 5.39209,-0.95153 4.12335,-0.99121 0.87223,-0.0396 -0.23789,0.71363 -4.28192,6.81939 -1.58591,3.48902 -1.2687,3.80615 -0.9119,5.07489 0.0396,5.39209 0.39646,2.06165 0.63437,0.63439 v 0.31714 l 0.3172,0.3172 -0.1586,0.15857 -1.42731,0.15863 -30.76654,6.97797 -12.37003,3.52862 -9.51541,3.76654 -3.80618,1.86341 -0.79294,0.19824 -0.63437,0.63434 -0.47577,0.15863 -1.42732,0.79291 -1.90308,1.26873 -2.85463,2.22028 -1.74449,1.74451 v 0.95154 l 0.47577,0.47576 1.11014,-0.19824 3.96475,-3.29077 2.69603,-1.74444 14.27313,-6.34363 45.35685,-11.10132 1.58587,0.0793 1.58591,0.83258 3.17181,0.99121 1.58591,0.23786 11.10132,-0.23786 3.48898,-0.63439 9.19824,-2.53742 3.80619,-1.58588 2.85461,-1.58593 2.14096,-1.50659 0.1586,-0.55506 0.23789,-1.42731 -0.63437,-0.6344 -0.0793,-0.39648 -1.50662,-0.47577 -7.9295,0.23792 -3.80619,0.63433 -16.81054,3.80616 -1.90311,-0.0793 -2.85461,-2.14093 -0.79294,-0.47577 -0.4758,-0.47577 -1.07047,-2.0617 -0.35684,-0.95154 -0.27753,-1.26874 -0.0396,-2.53741 0.63437,-3.48902 0.35681,-1.26873 1.2291,-2.85462 0.79294,-1.42731 2.85461,-4.44049 0.95154,-1.26873 0.63437,-0.95154 1.7445,-1.74451 1.11014,-0.15857 16.81055,-4.75775 7.92953,-3.17181 4.59912,-2.37885 2.06168,-1.42731 0.79294,-0.47577 1.42731,-1.4273 0.3172,-2.22028 -1.11014,-1.11011 -0.47577,-0.15856 -0.63437,-0.27759 -0.95154,-0.31714 -1.90307,-0.39649 -7.29517,0.71363 -3.48898,0.91192 -5.70926,2.22028 -2.69605,1.42731 -1.90307,1.26873 -2.69602,2.06165 -0.79297,0.47577 -2.85461,2.85461 -39.48898,5.55066 -19.30838,0.47577 0.11892,-2.22027 1.90311,-11.10132 3.80615,-15.85901 1.90308,-6.66077 0.1586,-1.74451 -0.47577,-0.47576 -1.34802,0.0396 -0.51542,1.22912 -8.60351,34.88984 -0.19824,1.82379 -37.38767,-2.29956 -21.4097,-3.33039 -0.47577,-0.47577 -0.15858,-0.47577 -2.37886,-4.28192 -2.69603,-3.96478 -1.74449,-2.37884 -0.31719,-0.6344 -0.95153,-0.95154 0.15858,-0.15857 3.3304,-0.79297 21.88545,-7.65198 2.85463,-1.22906 12.37004,-6.02643 5.86785,-3.64758 5.07489,-3.80616 0.95153,-0.63433 3.3304,-3.33045 2.85465,-3.80615 1.07046,-2.06165 0.27753,-0.95153 -0.0793,-4.28199 -0.95153,-0.95154 v -0.3172 l -0.47577,-0.47576 h -0.3172 l -0.63434,-0.63434 -2.06168,-0.47577 -1.26872,-0.0397 -3.17181,0.43615 -0.95154,0.23786 -1.58591,0.6344 -2.85463,1.26873 -5.86783,3.64753 -7.92952,6.02649 -4.59912,4.59906 -1.74449,2.3789 -0.63437,1.26868 -0.23788,0.6344 -0.23789,1.7445 -0.31718,0.31714 0.31718,0.3172 0.31719,1.90308 0.95154,0.95154 -0.0793,0.39648 -19.90309,6.54187 -7.92952,1.62555 -2.69603,0.15857 -3.64758,-3.64758 -1.11013,-1.42731 -0.63436,-1.90308 3.33039,-4.28192 5.55066,-5.55066 6.50222,-5.86786 1.11012,-0.79296 0.95154,-0.95154 0.79295,-0.19824 9.19824,-4.40088 6.5022,-3.64759 6.50221,-4.28192 6.81938,-5.23349 4.59913,-4.59912 0.63435,-0.95154 0.95154,-1.2687 1.7445,-2.69605 0.59471,-1.26874 0.27753,-1.2687 v -3.80619 l -0.27753,-0.95154 -0.75331,-1.4273 -1.11012,-1.11014 -0.63437,-0.31717 -2.06167,-1.42731 -0.63436,-0.3172 -0.47577,-0.15857 -0.1586,-0.1586 19.50663,-18.87225 10.94271,-6.81937 13.0044,-9.19824 10.62555,-9.03964 3.33041,-3.33041 0.63437,-0.95154 1.11011,-1.42731 0.59473,-0.95154 0.19824,-1.11013 -1.11014,-1.11014 -1.74451,0.23788 -0.63434,0.23789 -3.33041,1.7445 -4.28192,2.69602 -13.95596,11.10135 -9.99118,9.03964 -44.56388,24.54184 -1.5859,0.67401 -11.41851,4.99561 -1.82379,0.19824 0.0793,-0.9119 0.15859,-0.79297 0.63436,-0.63437 0.47577,-0.79293 2.53745,-3.17182 8.40529,-9.03964 2.06167,-2.06168 0.47577,-0.1586 9.19823,-4.44052 4.28195,-2.37884 4.59911,-3.01322 6.81939,-5.23349 0.95154,-0.63437 4.59912,-4.59912 3.01322,-3.96475 0.59471,-0.95154 0.35683,-0.95154 -0.0396,-1.2687 -0.11894,-0.4758 -0.79295,-0.79294 -2.06168,0.23788 -2.22026,0.87226 -5.86784,3.64758 -9.35683,7.45374 -2.53745,2.22027 -1.42732,1.11011 -5.39206,5.39209 -0.79295,0.19824 -14.90749,5.66959 -5.07489,1.22909 -2.69604,0.19821 -0.31719,0.3172 -0.31717,-0.3172 h -1.90309 l -0.63435,-0.63433 -1.34802,0.0396 -0.0793,0.43613 -0.47577,0.47576 H 195.859 l -0.47576,-0.47576 0.31718,-0.3172 0.19824,-0.79294 0.43613,-0.79297 0.95154,-1.26871 0.63435,-0.95154 0.79295,-0.79297 10.14978,-8.88104 13.95595,-11.10132 7.29515,-5.07489 6.81938,-3.64758 0.95156,0.31717 0.79295,0.47577 0.63435,0.63437 2.37887,-0.19824 1.26872,-0.27753 0.95154,-0.31717 0.79295,-0.1586 0.63435,-0.63437 0.79296,-0.19824 2.85463,-1.22907 0.63435,-0.31717 1.74451,-1.11013 0.47577,-0.47577 v -0.63437 l 0.63435,-0.63437 0.31718,-1.58591 -0.79295,-0.79294 h -0.63435 l -0.47579,-0.47576 -0.0793,-0.47577 -3.72689,0.23788 -0.95153,0.27753 -1.58591,0.59472 -1.11012,0.15857 -0.1586,-0.15857 0.47578,-0.47577 0.47577,-0.15859 3.3304,-2.06168 3.80617,-2.85462 2.06166,-2.06167 0.31718,-0.63437 0.63437,-0.95154 0.43611,-0.79297 0.35683,-1.2687 -0.0396,-1.26874 -0.11895,-0.47577 -1.11013,-1.11011 -0.47577,-0.11896 -0.95154,-0.0793 -1.58591,0.43613 -0.63435,0.23788 -0.79296,0.47577 -2.53744,1.90308 -0.79295,0.79293 -2.22026,2.85465 -1.26873,2.22024 -0.79295,0.79297 -0.47577,0.1586 -27.59471,12.37003 -3.48898,0.95154 -1.58591,-0.0396 -0.79295,-0.11892 -0.31719,-0.3172 -0.47577,0.47577 v 0.47577 l -0.31718,-0.15857 0.23788,-1.42734 0.39649,-1.42731 0.63435,-0.63437 0.47577,-0.79294 2.22028,-2.85461 0.47576,-0.79297 10.30837,-10.30835 6.81938,-5.55066 2.06168,-1.42734 0.79295,-0.43612 7.61234,-2.57709 0.79295,-0.15857 0.63435,-0.63437 h 0.31719 l 0.79295,-0.79297 0.15859,-0.47577 0.27754,-0.63433 0.31717,-0.95157 0.19824,-1.42731 -0.47577,-0.47577 -1.34802,-0.0396 -0.0793,-0.43613 -0.47577,-0.47577 -1.11013,-0.1586 -1.26873,-0.0396 -6.02643,0.99121 -15.85903,4.08368 -2.53745,0.35684 -3.1718,-0.0793 -0.95154,-0.23789 -1.18943,-0.0793 -0.0793,0.71365 -0.47578,0.47577 h -0.31717 l -0.47577,-0.47577 -0.0793,-0.47577 -0.0793,-1.5859 0.31718,-1.26871 0.63436,-1.58591 1.5859,-2.85464 0.63437,-0.95154 3.80617,-4.75769 0.47577,-0.79297 0.31718,-0.31717 -0.31718,-0.31717 v -0.3172 l -0.47577,-0.47577 m -3.96477,245.49778 v 0.3172 h -0.31717 v -0.3172 h 0.31717 m 0.31719,-0.95154 v 0.47577 l -0.31719,0.15863 v -0.3172 l 0.31719,-0.3172 m 26.32599,-56.9339 12.52864,0.79297 0.15858,0.31714 h -0.47577 l -7.77092,7.77093 -4.12335,4.75775 -5.86784,7.45374 -5.55066,8.08807 -8.24671,13.3216 -4.91629,9.67401 -1.54626,3.80615 -0.19823,0.79297 -0.31718,0.15857 v -0.15857 l 0.15858,-1.11011 5.07489,-17.76215 1.58591,-9.19824 -0.31719,-21.2511 -2.22026,-8.56384 -0.15858,-0.79297 -0.31719,-0.3172 0.15859,-0.15857 22.36124,2.37885 m 118.14979,18.23791 0.15857,0.15857 -0.79294,0.79297 -0.79297,0.15857 -1.90307,0.63434 -10.78415,2.22028 -10.62555,0.47576 -0.15857,-0.15857 0.47577,-0.47576 14.11453,-3.01325 1.90308,-0.31714 8.4053,-0.47577 m -79.92953,-17.44494 0.47577,0.47577 0.1586,0.47577 0.91189,1.90307 0.31717,0.95154 0.3172,1.58588 -0.0397,4.12335 -0.5947,2.53747 -0.91189,1.90308 -0.1586,0.47577 -0.47577,0.47577 -0.47577,-0.47577 -1.42731,-3.64758 -0.95154,-3.48896 -0.75329,-7.29516 h 3.60791 m -118.78414,-63.83264 0.95154,0.23791 1.58591,0.63434 3.01321,1.74451 2.06168,1.4273 12.21145,9.99121 10.30837,10.30835 0.31718,0.6344 0.15859,0.79291 -0.31719,0.6344 -1.26872,3.17181 -0.23788,0.95154 -0.47577,2.85462 0.23788,1.7445 0.63437,0.63434 v 0.3172 l 0.79295,0.79291 h 0.31717 l 1.26873,1.26874 3.01323,0.47577 h 1.90307 l 5.55066,-0.79297 1.11014,1.11017 0.47577,0.79296 0.95154,1.26868 5.07489,7.61237 0.1586,0.47577 0.31717,0.3172 -0.15859,0.15856 -5.23347,-1.11016 -26.96036,-8.92066 -8.72247,-4.55951 -4.28194,-3.01318 -0.79296,-0.47577 -4.91629,-4.91632 -0.47576,-0.79297 -1.74451,-2.37884 -1.42731,-2.37885 -1.22908,-2.53748 -0.95154,-2.85461 -0.31718,-1.90308 -0.35683,-6.02642 0.71367,-3.80616 0.23789,-0.63433 0.31716,-0.6344 0.1586,-0.47577 1.7445,-1.74451 h 0.31718 l 0.63435,-0.63434 3.3304,0.23786 m 179.20705,48.92511 v 0.3172 h -0.31717 v -0.3172 h 0.31717 m 23.15417,-8.00879 1.74451,0.39648 0.1586,0.15857 -0.47577,0.47577 -2.06167,0.79297 -14.59034,4.44055 -6.66076,1.58588 -1.11014,0.15857 -0.1586,-0.31714 h 0.1586 l 0.79294,-0.47577 3.33041,-2.37885 3.33038,-1.7445 4.12336,-1.58594 4.44052,-1.26868 1.90307,-0.27753 5.07489,0.0396 m -165.56826,-9.59473 -0.1586,0.15863 -4.20264,-0.0793 -0.19824,-0.55512 -0.0396,-1.26868 0.39646,-1.58593 0.0793,-0.47577 0.15859,-0.15857 3.96477,3.96472 m 63.75329,-32.59027 0.79297,0.0793 1.11011,1.11011 0.0793,0.47577 0.0396,1.90308 -0.31717,0.9516 -1.38767,2.69598 -3.33041,3.33044 -0.47577,0.15857 -9.67401,5.86786 -9.03964,4.24225 -0.95154,0.3172 h -1.90309 l -2.85463,-0.95154 -0.47577,-0.11896 -0.47577,-0.47576 v -0.95154 l 0.63437,-0.63434 0.63435,-1.26874 6.18503,-6.185 0.79295,-0.47577 6.5022,-4.91632 5.55066,-3.33038 3.80617,-1.58594 1.26872,-0.23785 h 3.48898 m -21.0925,-30.37006 0.15859,0.1586 -1.11014,1.11011 -18.07928,16.49341 -6.18503,6.18503 -3.96475,4.91626 -0.63437,0.9516 -0.31719,0.63433 -0.23788,0.55506 -0.55506,-0.0396 -0.79295,-0.19825 -0.63437,0.63434 -0.75329,-0.0793 0.15858,-2.14099 0.31718,-0.95154 0.9119,-1.90308 2.22026,-3.17181 4.28194,-5.23349 9.99119,-9.99118 7.61234,-6.02643 0.79294,-0.47577 1.90309,-0.9119 1.26872,-0.27752 3.64758,-0.23789 m 3.1718,0.63437 0.31719,0.31717 1.26872,0.31717 0.63435,0.63437 1.58591,0.95154 1.42731,1.4273 0.43612,1.42734 0.0397,1.90308 -0.35684,1.26871 -0.59471,1.26873 -1.74449,2.69602 -0.39647,0.71368 -3.88547,3.2511 -5.70924,4.12335 -2.22028,1.26871 -0.63435,0.63437 -0.31719,-0.3172 -0.47577,-0.11893 -0.95154,-0.0396 -1.5859,0.63434 -8.40529,4.91629 -0.79295,0.43616 -6.97797,2.29956 -0.63437,0.23785 -0.79295,0.19824 -0.15859,-0.15857 0.63437,-0.63434 0.47577,-0.79296 0.79295,-1.11017 0.31717,-0.63434 10.30838,-10.30838 18.39647,-16.81055 m -23.94713,-14.27313 v 0.31717 h -0.31718 v -0.31717 h 0.31718 m 35.52422,-0.63437 v 0.31717 h -0.31717 v -0.31717 h 0.31717 M 231.85899,458.1454 v 0.31716 h -0.31717 v -0.31716 h 0.31717 m 19.58591,-14.51102 -0.23788,0.71365 -0.31719,0.63437 -1.74449,1.74448 -3.1718,2.53744 -4.7577,3.48899 -8.72248,5.23349 -0.47577,0.1586 -0.1586,-0.1586 0.79296,-0.79294 1.42732,-1.11014 2.53744,-2.22028 8.88106,-6.97796 5.39206,-3.17182 0.55507,-0.0793 m 0.39649,-0.39649 v 0.31717 h -0.31719 v -0.31717 h 0.31719 m 26.0088,4.75773 v 0.31716 h -0.31717 v -0.31716 h 0.31717 m 0.31717,-0.3172 v 0.3172 h -0.31717 v -0.3172 h 0.31717 m 0.63437,-0.31717 v 0.31717 h -0.31717 v -0.31717 h 0.31717 m 0.3172,-0.31717 v 0.31717 h -0.3172 v -0.31717 h 0.3172 m 1.1101,-0.95157 0.1586,0.1586 -0.79293,0.79297 h -0.3172 l -0.15857,-0.1586 0.79294,-0.79297 h 0.31716 m 10.14979,-7.92951 0.1586,0.1586 -1.11014,1.11014 -0.95154,0.63434 -7.29517,5.70926 -0.63434,0.31717 -0.1586,-0.15857 1.42731,-1.42731 7.77094,-5.86786 0.79294,-0.47577 m -37.6652,-21.80615 0.0793,0.71366 -0.79295,0.79293 -4.28194,2.37885 -0.47577,0.1586 -0.1586,-0.1586 2.69605,-2.69602 h 0.31718 l 0.95154,-0.95153 1.66519,-0.23789 m 38.29956,21.48899 0.1586,0.31716 h -0.47577 l -0.15859,-0.31716 h 0.47576 m 0.47577,-0.3172 v 0.3172 h -0.31717 v -0.3172 h 0.31717 m 0.31717,-0.31717 v 0.31717 h -0.31717 v -0.31717 h 0.31717 m 0.95157,-0.63437 v 0.3172 h -0.3172 v -0.3172 h 0.3172 m -68.8282,-22.83701 v 0.3172 h -0.31718 v -0.3172 h 0.31718" /></g><g
           id="g48"><path
             id="path50"
             style="fill:#000000;fill-opacity:1;fill-rule:evenodd;stroke:none"
             d="m 299.73569,18.096916 -1.26874,-0.03965 -1.58591,0.634361 -1.74447,1.110133 -2.06168,2.061674 -0.47577,0.792951 -0.79297,1.110133 -0.43609,0.792951 -0.19825,1.110132 -0.3172,0.317181 0.3172,0.317181 v 0.31718 l 0.47577,0.475771 0.31717,-0.31718 1.03086,-0.396475 0.47576,-1.744494 h 0.47577 l 0.0793,0.396475 0.47577,0.475771 0.47577,0.0793 h 1.90307 l 0.4758,-0.0793 2.37885,-2.378855 0.1586,-0.475771 0.95154,-2.537445 -0.0397,-0.951542 -0.11892,-0.475771 -0.47577,-0.475771 -0.47577,-0.118942 m -2.85465,2.656388 v 0.31718 h -0.31717 v -0.31718 h 0.31717 m 0.4758,-0.317181 0.15857,0.317181 h -0.47577 l -0.1586,-0.317181 h 0.4758 m 1.58588,-0.634361 0.1586,0.31718 h -0.1586 l -1.26871,0.317181 -0.1586,-0.15859 0.47577,-0.475771 h 0.95154" /></g><g
           id="g52"><path
             id="path54"
             style="fill:#000000;fill-opacity:1;fill-rule:evenodd;stroke:none"
             d="m 238.99559,47.079296 -0.47577,0.158589 -1.90308,0.03965 -0.47576,0.118943 -0.79296,0.792949 -0.0793,0.475773 v 1.585903 l 0.0793,0.475769 0.79296,0.792954 h 0.31717 l 0.95155,0.951542 h 0.63435 l 0.15859,0.158588 -7.61234,7.612335 -1.74449,2.378857 -0.31717,0.634361 -0.1586,0.475769 -0.63435,0.634362 -0.39649,1.744491 v 3.171807 l 0.23789,0.951545 0.35682,0.951538 0.11895,0.475769 0.47578,0.475777 h 0.31717 l 0.95155,0.951538 3.96476,0.118943 2.22026,-0.594712 6.34361,-2.537445 9.19824,-4.440529 L 252,65.47577 l 0.15858,0.158592 -14.90748,14.907486 -13.63876,14.907494 -0.79296,1.11013 -0.63435,1.585907 -0.1586,0.792946 -0.31719,0.317184 0.31719,0.317177 0.31718,1.903084 1.11014,1.11013 1.11012,0.39648 1.58591,0.0793 1.26872,-0.35683 2.22026,-0.9119 5.39208,-2.537441 8.56387,-4.440528 0.47577,-0.158593 0.1586,0.158593 -18.39648,18.396479 -4.75771,5.70925 -1.26872,1.90308 -0.43613,0.79295 -0.51541,1.7445 0.31717,0.31717 -0.31717,0.31719 0.31717,0.31717 v 0.63437 l 0.63437,0.63436 0.0793,0.39647 2.14096,0.8326 1.90309,0.0396 1.26872,-0.35683 4.75771,-1.86343 13.16299,-6.81939 0.71366,-0.23789 -2.45815,2.93393 -26.80176,27.75331 -0.79295,1.11012 -0.63437,0.63437 -0.19823,0.79295 -0.2379,0.63436 -0.31717,1.26872 -0.19824,2.06167 -0.31718,0.31719 0.63437,0.63435 0.31718,0.95154 0.47577,0.47579 1.11012,0.39647 2.22026,0.0396 1.26873,-0.27753 14.9075,-6.02643 8.56387,-3.80617 0.47577,-0.1586 0.15858,0.1586 -10.62554,10.62555 -16.17621,14.27314 -5.55066,5.55066 -1.07048,2.06166 -0.19825,1.11013 -0.31718,0.31719 0.31718,0.31718 0.23789,1.42731 0.39648,1.11014 0.47577,0.47577 2.85462,0.31717 0.31718,0.31718 0.31719,-0.31718 1.74449,-0.15859 6.34361,-1.90307 17.44493,-6.70044 0.47577,-0.11896 0.1586,0.1586 -1.11014,1.11012 -1.11014,0.79295 -16.96916,14.74891 -3.96475,3.96476 -6.18503,7.45374 -0.63435,0.95154 -2.18062,4.12335 -0.35683,0.95154 -0.23788,1.26872 v 4.44054 l 0.39647,1.74449 1.42732,1.4273 0.95154,0.31719 0.63435,0.63437 2.69605,0.51541 0.95153,0.0396 4.44053,-0.75329 10.46696,-3.13216 2.53745,-0.95155 0.79295,-0.15859 h 0.15858 l -0.15858,0.31719 -0.79295,0.47577 -32.03524,25.05726 -16.65199,15.06609 -10.30836,10.30838 -14.27314,16.17621 -37.74449,49.79733 -3.3304,5.23349 -1.54625,3.17181 -0.31718,1.26871 0.0396,2.22028 0.0793,0.47576 0.79295,0.79294 0.79296,0.11896 1.90308,0.0396 3.80617,-0.63437 12.37005,-3.80615 9.51541,-3.52862 8.24669,-3.44934 13.00441,-6.34363 17.28635,-10.62555 9.83259,-7.61234 2.69605,-2.37884 1.4273,-1.11014 4.91631,-4.91629 7.77092,-9.35684 4.28193,-6.18503 6.77974,-12.21146 0.67402,-1.58587 3.44934,-7.61234 0.11894,-1.18945 -0.39649,-0.0793 -0.31718,-0.31717 -0.31717,0.31717 -0.39648,0.0793 -3.09252,7.21588 -8.0881,14.7489 -8.24669,11.10132 -5.39208,6.02643 -1.4273,1.4273 -1.58591,1.26874 -12.21146,9.99118 -12.68722,8.24671 -17.12775,8.8414 -1.58591,0.67401 -23.15418,8.88104 -8.24669,2.18063 -3.64759,0.19825 -0.47577,-0.47577 0.31719,-0.3172 0.19823,-0.79294 0.59471,-1.26874 1.42732,-2.37884 42.02643,-54.71366 6.50221,-7.45373 15.70044,-15.70047 37.58589,-31.24228 26.96036,-17.76212 10.46695,-5.35241 7.61233,-2.89428 4.44056,-1.26872 1.5859,-0.27754 h 2.85462 l 1.2687,0.27754 0.95157,0.35683 1.42731,0.75329 1.42731,1.42733 1.70483,3.3304 0.35684,0.95153 1.18943,6.02643 -0.55506,16.49339 -1.58591,8.88106 -2.06167,8.08811 -1.26874,1.26872 -0.63434,0.95154 -14.59033,19.34802 -1.90308,2.85461 -0.31716,0.63437 -0.47577,0.47577 -0.79297,0.1586 -18.71366,4.12335 -4.91629,0.47577 -0.95155,0.95154 -2.06168,0.19824 -1.4273,0.43613 -0.79296,0.79294 -0.15858,0.79297 0.0396,1.2687 0.8326,1.50663 3.72688,0.95153 1.26872,0.51542 0.95154,0.0793 4.12335,-0.67401 6.66078,-1.58591 7.45376,-2.37884 0.15858,0.1586 -0.63435,0.63437 -0.1586,0.47576 -16.13655,29.18061 -1.58591,4.12335 -0.11894,1.18942 1.34802,0.39649 0.63435,-0.63437 0.63437,-0.31717 3.80617,-2.85465 7.77092,-7.7709 0.79295,-1.11014 6.18503,-7.77093 5.23346,-7.77091 0.1586,-0.4758 v -0.15857 l 0.31717,0.15857 -3.96475,31.24231 -0.47577,15.14536 -0.63437,-0.0793 -4.75769,-1.86343 -11.73569,-3.21146 -12.05287,-1.54626 -11.10132,0.3172 -4.44052,0.91189 -6.6608,2.25992 -3.1718,1.54624 -3.01323,1.7445 -3.33038,2.37885 -0.79295,0.47577 -3.3304,3.33041 -1.07048,2.06168 -0.63437,1.58587 -0.35683,1.26874 -0.23788,1.58591 v 5.70926 l 0.39647,3.33038 0.63437,0.63437 0.31718,0.95154 1.42731,1.4273 2.69603,1.38767 0.95155,0.35684 1.26872,0.19821 7.92951,0.0397 8.56389,-1.50663 4.5991,-1.11013 0.1586,0.1586 -5.70926,5.70925 -4.91629,6.5022 -1.5859,2.53745 -2.53745,5.70926 -0.63437,2.22024 -0.47577,3.96475 0.63437,0.63437 0.71366,1.34802 1.5066,0.55506 1.26872,0.27756 h 2.22027 l 1.26872,-0.27756 9.51542,-3.52863 13.63877,-6.62115 8.24669,-5.39206 4.28195,-3.33038 0.95154,-0.63437 2.69603,-2.69605 0.63437,-0.95154 0.95153,-1.2687 0.63436,-0.95157 0.31718,-0.63434 0.63437,-0.63437 0.11894,-0.79294 -0.0397,-2.22027 -0.0793,-0.47577 -0.79295,-0.79297 -1.42733,-0.71366 -1.90307,-0.39645 h -2.85463 l -1.90308,0.39645 -2.22027,0.9119 -3.33039,2.02203 -2.37886,2.37885 -1.4273,2.69604 -0.2379,0.63437 -0.39647,2.53745 v 1.90307 l 0.47577,2.06168 -0.47577,0.47577 -0.47577,0.1586 -14.27313,6.3436 -4.75771,1.5859 -3.48898,0.63437 -1.90309,-0.0396 -0.95154,-0.27756 -0.87226,-0.0793 -0.15858,0.47577 h -0.47577 l 0.0396,-0.87226 0.43613,-1.90307 1.18942,-2.85462 1.90309,-3.17181 6.18502,-7.77094 3.01323,-3.01321 0.95153,-0.63434 3.1718,-2.53744 0.95156,-0.63437 0.79293,-0.39649 5.39208,-1.66519 2.06167,-0.79297 1.11014,-1.1101 v -0.63437 l 0.63436,-0.63437 v -1.26871 l -0.47577,-0.47577 -0.47577,-0.1586 -0.63437,-0.31717 -0.63435,-0.19824 -3.80617,-0.0793 -18.39647,2.73568 h -7.61234 l -5.39207,-0.95154 -1.90309,0.0396 -0.63436,-0.27753 -0.47577,-0.1586 -1.11013,-1.11011 -0.39647,-1.42733 v -3.17179 l 0.87224,-2.22027 0.79295,-1.42731 2.06168,-2.06168 0.63435,-0.3172 3.489,-2.53744 6.81938,-3.60791 8.88106,-2.57709 h 16.49339 l 10.78413,1.94272 7.29515,2.18063 4.12337,1.58588 1.90308,0.95157 0.47577,0.15857 0.47577,0.47577 0.0793,0.43612 2.29956,0.0396 0.79297,-0.79293 -0.19824,-0.79297 0.11892,-1.18942 -0.47576,-0.15857 -0.19825,-0.55509 -0.27752,-1.26871 -0.47577,-6.34362 5.23349,-45.03965 0.23788,-0.63436 2.85462,-5.39206 0.23788,-0.55506 0.87225,-0.23788 20.61673,-8.24671 7.77094,-3.96475 0.79294,-0.79297 0.11896,-0.47577 0.11895,-0.87225 -0.87225,-0.15857 -2.53745,-0.0397 -2.53744,0.59472 -4.44055,1.30838 -15.22464,5.35242 -0.79297,0.1586 -0.31717,0.31717 -0.1586,-0.1586 0.1586,-0.47577 4.71805,-12.37002 0.99118,-3.17182 0.1586,-0.79295 0.95154,-0.95154 0.79296,-1.11014 25.53302,-28.38766 11.89429,-11.89427 10.30838,-8.72248 1.11011,-0.79295 5.86786,-3.33038 0.55505,-0.2379 0.0793,-0.39647 0.47577,-0.47577 h 0.63433 l 0.79297,0.79295 0.43613,1.42731 0.35681,2.22026 -0.35681,6.97798 -1.2291,6.97797 -1.5859,6.66079 -7.33478,20.93393 -1.2291,2.85462 -7.9295,16.81058 -8.16739,13.95593 -0.23788,1.42734 0.47577,0.47576 0.31716,-0.31719 h 0.31717 l 0.47577,-0.47577 0.1586,-0.47577 0.79297,-1.42731 12.48898,-22.99559 0.67402,-1.58591 8.88104,-22.20263 4.08371,-15.85904 0.99118,-7.92952 -0.0793,-4.75771 -0.23788,-1.58591 -0.35684,-1.26872 -0.27753,-0.63435 -0.79294,-1.42731 -1.11014,-1.11014 -0.95153,-0.31718 -0.63437,-0.63436 -2.37885,0.23789 -0.95157,0.27753 -1.2687,0.59471 -2.69605,1.74449 -1.42731,1.11014 -5.55066,4.9163 -14.43173,14.43172 -23.15417,25.69162 -0.95154,1.26872 -1.42731,1.42732 -0.1586,-0.1586 0.1586,-1.11012 3.2511,-21.2511 -0.71365,-9.51542 -0.99118,-4.12336 -0.9119,-2.22026 -0.79297,-1.4273 -0.79294,-1.11014 -0.47576,-0.79295 -2.69605,-2.69603 -0.63437,-0.31719 -1.74447,-1.11012 -2.22028,-0.9912 -0.63437,-0.19824 -1.58591,-0.31718 h -5.70922 l -1.26874,0.2379 -5.86783,2.06166 -0.1586,-0.15859 2.22028,-2.22026 0.63433,-0.95154 1.90311,-2.53744 1.11011,-1.74451 1.22909,-2.22026 0.63437,-1.58591 0.63434,-2.53744 -0.0396,-2.85462 -0.39649,-1.11013 -1.1101,-1.11014 h -0.3172 l -0.63437,-0.63435 -4.28192,-0.0793 -0.95154,0.23788 -1.58591,0.63437 -2.85463,1.90307 -4.28194,3.64759 -4.9163,4.9163 -0.79294,1.11013 -3.3304,4.28193 -1.38766,2.69605 -0.59473,2.22026 0.0793,5.23347 -0.47577,0.47577 -0.79295,0.1586 -15.85903,5.07489 -3.80616,0.59471 -6.50222,-0.11894 -0.31716,-0.31718 -0.31719,0.31718 h -0.95154 l -0.47577,-0.47577 -0.0793,-0.47577 -0.0397,-2.22027 0.31718,-1.26873 1.54627,-3.17179 0.63435,-0.95154 3.64758,-4.59912 9.35683,-9.35683 20.14096,-16.96916 0.95155,-0.63437 3.80617,-1.54625 0.79295,-0.19824 0.47577,-0.47577 0.19823,-2.06168 0.43613,-1.42731 -0.47577,-0.47576 -1.03084,-0.0793 -0.0793,-0.39649 -0.47577,-0.47577 -0.31717,0.31719 -1.42732,0.19824 -22.20264,8.80176 -7.61233,2.25992 -1.58591,0.27752 -3.72687,0.19824 0.55507,-1.11013 0.71365,-1.03084 34.01763,-31.79735 2.22026,-1.26872 1.42731,-1.42732 0.31718,-1.26873 0.31719,-0.31718 -0.31719,-0.31717 v -0.31718 l -0.47577,-0.47577 -0.47577,0.15858 -0.63437,0.0397 -0.95153,-0.0793 -2.22026,0.63435 -18.0793,7.33481 -8.56388,3.48898 -2.53744,0.67401 -1.82379,-0.11894 -0.39647,1.03084 v 0.15858 l -0.31719,-0.15858 0.23789,-1.74449 0.23788,-0.63437 1.74449,-2.37885 11.89427,-11.89427 h 0.31719 l 3.01321,-3.01321 14.5903,-15.85904 2.06168,-2.06168 0.47577,-0.15858 2.22028,-1.26872 0.47576,-0.1586 2.06168,-2.06167 0.31717,-1.5859 0.31718,-0.31719 -0.31718,-0.31717 -0.0793,-0.43613 -1.5066,0.0793 -2.53745,0.43612 -0.95155,0.27753 -12.05286,5.98679 -4.7577,2.49779 -6.34362,2.5771 -1.26872,0.31718 h -1.26872 l -0.79295,-0.15859 -0.47577,-0.47577 0.47577,-0.79296 1.26872,-1.5859 3.96475,-4.59912 16.01762,-16.017613 7.29516,-6.343613 3.01321,-1.744499 2.14098,-1.506607 0.71365,-1.348015 0.31717,-0.317185 -0.31717,-0.317176 0.31717,-0.317185 v -0.634361 l -0.47577,-0.475769 -1.42731,-0.198235 -0.95154,0.03964 -3.17179,1.268722 -22.51984,11.061676 -0.95154,0.317185 h -1.90308 l -0.79295,-0.118943 -0.1586,-0.158592 0.63437,-0.634361 0.47577,-0.792954 13.79736,-15.066078 16.96915,-16.334801 2.22028,-1.903083 3.48898,-2.220265 0.63437,-0.31718 1.11014,-1.110135 V 55.80157 l -0.47577,-0.475769 -0.79297,-0.118943 h -1.90308 l -0.95154,0.317181 -22.20265,10.11013 -3.48898,0.951538 -3.72687,-0.118942 -0.1586,0.515419 -1.03084,0.0793 -0.79295,-0.792953 0.19824,-1.110131 0.59471,-1.268722 0.47577,-0.792954 0.95155,-1.268722 8.88106,-9.515419 0.39647,-0.79295 0.23789,-1.744495 -0.63436,-0.634362 -0.31718,-0.951542 -1.11014,-1.11013 m 11.5771,312.977986 1.11013,0.0793 0.79295,0.79293 -0.19824,1.11014 -1.07048,1.74451 -0.47577,0.47577 -0.79296,0.47577 -3.64756,2.69604 -6.50222,3.96475 -0.47577,0.15857 -0.63435,0.63437 -0.71367,-0.0793 -0.15858,-0.55509 -0.0396,-2.85461 0.35682,-1.58591 0.23789,-0.63437 1.11012,-1.74447 0.31718,-0.63437 0.47577,-0.47577 0.95156,-0.63437 1.26872,-0.95154 0.79294,-0.47577 0.47578,-0.1586 0.63435,-0.63433 0.79296,-0.19825 0.63435,-0.23788 1.26872,-0.27753 h 3.489 m -11.73568,-44.64319 v 0.3172 h -0.31719 v -0.3172 h 0.31719 m 24.89868,-36.1586 0.1586,0.1586 -0.3172,5.70926 -0.63437,0.63437 -0.15857,0.47577 -1.90311,3.48898 -5.23346,7.77091 -7.61233,9.51544 -5.55066,5.55066 -2.53745,1.90307 -0.95155,0.95154 -0.15858,-0.1586 0.15858,-0.47577 18.55507,-32.51101 0.31717,-0.63434 0.47577,-0.47577 5.39209,-1.90311 m 3.2511,-0.87222 -0.0793,0.55505 -0.1586,0.47577 -0.31717,0.1586 0.0793,-1.18942 h 0.47577 m 8.80175,-21.33041 0.1586,0.1586 -4.95596,12.84582 -0.11893,0.47577 -0.79297,0.79294 -0.79293,0.1586 -4.75772,1.62555 -0.55506,0.0396 0.23789,-0.71365 10.14978,-13.79737 1.4273,-1.5859 m 5.55066,-11.73568 v 0.31717 h -0.31717 v -0.31717 h 0.31717 m -49.16299,-29.81498 v 0.31718 h -0.31719 v -0.31718 h 0.31719 m 0.63437,-0.31717 v 0.31717 h -0.31719 v -0.31717 h 0.31719 m 29.4978,-33.06609 1.11011,0.39647 0.79297,0.79295 0.0793,0.47577 0.0396,2.53745 -0.27752,1.26872 -0.35682,0.95155 -1.70486,3.3304 -0.79294,1.11013 -0.47577,0.79295 -2.06167,2.06168 -0.95154,0.63435 -6.34361,4.75772 -2.37886,1.42731 -6.6608,3.17181 -1.58591,0.674 -0.47577,0.11894 -0.47577,-0.47577 0.23789,-3.64757 0.23788,-1.26872 0.63437,-1.58591 1.58591,-2.53744 2.53744,-3.17182 0.79294,-1.11012 4.28195,-4.28194 4.59911,-3.96476 1.11014,-0.79296 0.63435,-0.31717 0.63437,-0.63436 0.79294,-0.19825 0.63437,-0.23788 0.95154,-0.27753 h 2.85464 m -4.75772,18.15859 v 0.31718 h -0.31717 v -0.31718 h 0.31717 M 242.3258,146.99096 v 0.31716 h -0.31719 v -0.31716 h 0.31719 m -19.98238,-26.00882 v 0.31718 h -0.31718 v -0.31718 h 0.31718 m 0.31719,-0.63436 v 0.31718 h -0.31719 v -0.31718 h 0.31719 m 21.56828,-3.17181 v 0.31718 h -0.31718 v -0.31718 h 0.31718 M 225.19805,96.876414 v 0.475769 l -0.31718,0.158592 V 97.19359 l 0.31718,-0.317176 m 0.31717,-0.634362 v 0.317177 h -0.31717 v -0.317177 h 0.31717 m 19.03084,-1.903083 v 0.317176 h -0.31717 v -0.317176 h 0.31717 m 0.47578,-0.317185 0.15859,0.317185 h -0.47577 l -0.1586,-0.317185 h 0.47578 m 0.47577,-0.317177 v 0.317177 h -0.31718 v -0.317177 h 0.31718 m 7.13655,-28.546257 0.1586,0.317177 h -0.47577 l -0.1586,-0.317177 h 0.47577 m 0.47579,-0.317184 v 0.317184 h -0.31719 v -0.317184 h 0.31719" /></g></g></g></g></svg>