<svg version="1.1" id="Layer_1" xmlns="http://www.w3.org/2000/svg" xmlns:xlink="http://www.w3.org/1999/xlink" x="0px" y="0px"
	 width="100%" viewBox="0 0 496 272" enable-background="new 0 0 496 272" xml:space="preserve">
<path fill="#000000" opacity="1.000000" stroke="none" 
	d="
M497.000000,135.571533 
	C495.375092,137.294907 493.903564,138.993881 491.330444,138.095169 
	C490.360687,133.774002 492.516052,131.492996 496.694092,130.148743 
	C497.000000,131.714355 497.000000,133.428711 497.000000,135.571533 
z"/>
<path fill="#000000" opacity="1.000000" stroke="none" 
	d="
M471.156128,175.988403 
	C473.620819,174.974152 475.763306,174.951370 476.034485,177.705017 
	C476.304779,180.449661 474.134369,180.238083 472.181183,179.925369 
	C470.638306,179.678375 469.766815,180.857040 468.833618,181.779510 
	C467.281677,183.313675 465.636353,184.666611 463.576782,185.508575 
	C461.442413,186.381119 459.344147,186.702728 457.438416,185.176254 
	C455.432190,183.569382 455.601654,181.450928 456.360168,179.247528 
	C457.003204,177.379608 457.545563,175.477051 458.388977,172.765137 
	C453.063171,177.571045 448.330627,181.853516 443.581909,186.117996 
	C442.467682,187.118622 441.371857,188.167191 440.135742,188.997452 
	C438.737305,189.936752 437.112183,190.734985 435.492401,189.599075 
	C433.893829,188.478058 433.978668,186.729294 434.434082,185.060471 
	C434.946198,183.183807 435.592316,181.343735 436.425232,178.713882 
	C432.073456,182.766876 428.406799,186.364990 424.526276,189.715439 
	C422.695648,191.296036 420.390198,193.439972 417.895844,191.506378 
	C415.580627,189.711731 416.605469,186.969284 417.484436,184.587311 
	C418.099762,182.919876 418.744049,181.263123 418.756683,179.144394 
	C413.931488,183.640991 409.108215,188.139694 404.279694,192.632767 
	C403.060883,193.766907 401.899292,194.980438 400.578888,195.983002 
	C398.905884,197.253326 396.865265,197.984100 394.996490,196.766617 
	C392.934631,195.423340 393.559570,193.188934 394.185455,191.305435 
	C395.267273,188.049942 396.564606,184.866043 398.096252,180.787308 
	C393.187286,182.943649 391.314697,186.836884 388.486115,189.681015 
	C385.788757,192.393188 383.295654,195.307587 380.626160,198.048782 
	C379.055298,199.661880 377.057098,200.984787 374.835602,199.807037 
	C372.496521,198.566956 372.861053,196.200500 373.471313,194.023071 
	C374.262268,191.201019 375.094940,188.390640 376.141418,184.774109 
	C372.239471,186.325745 370.744904,189.257645 368.520813,191.282715 
	C365.323395,194.194046 362.508911,197.533737 358.715698,199.754929 
	C355.757874,201.486954 352.632690,202.944000 349.316772,201.079788 
	C346.143219,199.295639 346.631104,196.043701 346.818390,193.030090 
	C346.868286,192.227600 346.825928,191.419403 346.825928,190.712357 
	C345.309296,190.012100 344.729584,190.993561 344.202667,191.766281 
	C325.185486,219.656784 299.089752,240.079468 272.395203,259.871033 
	C268.653107,262.645447 265.225830,265.859009 261.034576,268.008484 
	C258.967743,269.068420 256.592590,270.722961 254.592728,269.014709 
	C252.685318,267.385406 253.531921,264.664276 254.200653,262.429749 
	C257.648010,250.910553 261.934479,239.720230 267.796143,229.196014 
	C277.524292,211.729706 290.465790,197.563919 309.186829,189.450577 
	C311.039154,188.647812 312.811005,187.030899 316.595795,189.132614 
	C280.813354,202.773010 267.034943,232.396973 256.221680,264.466309 
	C258.381134,265.712372 259.107147,265.203217 259.744934,264.696411 
	C278.506439,249.787735 299.144257,237.097382 315.311401,219.114349 
	C329.681580,203.130157 343.597382,186.702957 354.060486,167.754837 
	C356.217285,163.849030 357.805664,159.567108 359.172943,155.303619 
	C360.813263,150.188904 359.456390,147.199005 354.351074,146.289444 
	C343.698090,144.391571 333.147430,144.783585 323.568024,150.792587 
	C321.458221,152.116028 319.713135,154.121201 317.493347,155.151703 
	C307.708344,159.694122 305.278931,168.294861 304.254456,177.899979 
	C303.993988,180.342010 304.177765,184.338135 300.643494,183.930130 
	C296.536377,183.456009 297.676910,179.381454 297.934937,176.569946 
	C298.186188,173.832642 299.012177,171.148087 299.714081,167.834869 
	C290.679047,170.879227 284.027222,177.474960 275.334473,179.725143 
	C273.980804,176.814072 275.779724,175.449585 276.997711,174.018951 
	C283.021942,166.942963 290.430542,161.538986 298.629395,157.367325 
	C303.131500,155.076614 305.897552,151.965515 307.398285,147.202866 
	C308.643524,143.251053 310.462830,139.468506 312.194092,135.687119 
	C312.900482,134.144363 313.310944,132.064438 316.370941,132.048416 
	C317.404022,138.388412 313.061890,143.582275 312.401642,149.851013 
	C316.860596,149.483078 320.772186,148.061844 323.944122,145.456085 
	C335.800385,135.716064 347.015778,125.267021 357.367828,113.921471 
	C359.612305,111.461578 361.522186,108.764511 362.758453,105.052895 
	C357.180267,103.147568 352.086273,104.677696 347.125153,106.146866 
	C334.468079,109.895058 322.320557,114.888214 310.934814,121.653770 
	C309.041504,122.778786 307.168304,124.348526 304.691223,123.910538 
	C304.317749,122.046455 305.626740,121.673706 306.557098,121.127647 
	C320.848816,112.738853 335.814819,105.985008 352.050842,102.258522 
	C355.529083,101.460197 359.018250,101.463760 362.488678,101.737503 
	C367.417236,102.126244 369.102448,105.521523 366.523834,109.737206 
	C364.072876,113.744217 360.774841,117.082298 357.386444,120.294685 
	C349.422607,127.844910 341.399902,135.333038 333.479187,142.772873 
	C338.738556,142.772873 344.056854,142.776367 349.375183,142.771942 
	C355.202301,142.767075 360.180573,144.374329 363.372559,149.746201 
	C365.093292,152.642044 363.593475,156.032379 364.967377,158.996597 
	C367.045959,159.411972 368.347137,157.759247 370.031281,157.243073 
	C372.312225,156.543961 374.821960,155.820267 376.498993,157.970245 
	C378.022186,159.922958 377.882416,162.600922 376.554199,164.593277 
	C372.542572,170.610931 367.996796,176.143967 360.517731,178.087173 
	C359.245575,178.417725 357.617920,178.262283 357.084076,179.722397 
	C354.940125,185.586456 351.960327,191.332275 353.774872,198.151794 
	C357.291260,198.473236 359.464600,196.151230 361.540619,194.259018 
	C369.318054,187.170151 376.106110,179.178101 382.078430,170.510101 
	C383.136139,168.974930 384.034576,166.978424 386.272858,168.091034 
	C388.450714,169.173615 387.643829,171.299866 387.027649,172.970001 
	C385.471619,177.187729 383.700409,181.325531 382.080872,185.520615 
	C381.198669,187.805786 380.016083,190.059753 380.581390,192.658264 
	C382.388275,193.156097 383.017487,191.768021 383.871368,190.849167 
	C390.223938,184.013382 396.557312,177.159775 402.900421,170.315186 
	C404.116669,169.002747 405.105560,167.212265 408.028809,168.318542 
	C407.391052,176.274231 401.946472,182.920181 400.566956,190.824768 
	C402.733826,191.039856 403.638611,189.667068 404.632874,188.638550 
	C411.806305,181.217651 420.115082,174.946960 426.656952,166.888229 
	C427.525940,165.817734 428.581909,164.760422 430.030914,165.531693 
	C431.634705,166.385361 430.956085,167.878387 430.422638,169.056839 
	C428.775513,172.695724 426.975677,176.265381 425.322266,179.901535 
	C424.445496,181.829666 423.022125,183.585464 423.153656,185.989731 
	C425.014740,186.400208 425.825195,184.924469 426.740204,183.941345 
	C432.742523,177.492111 439.934998,172.159729 444.825256,164.661835 
	C445.569305,163.521011 446.691772,162.428101 448.146484,163.242249 
	C449.944611,164.248566 449.107941,165.857635 448.500580,167.198242 
	C446.028961,172.654129 443.496216,178.082321 441.575989,184.198456 
	C442.854797,183.145752 444.250092,182.205505 445.393280,181.021820 
	C452.212097,173.961472 459.949005,167.775711 465.725739,159.720627 
	C466.763824,158.273132 468.092194,157.032883 469.887939,158.208389 
	C471.650574,159.362244 470.395996,160.859909 469.808838,162.177673 
	C467.707245,166.894379 465.555115,171.589111 463.505951,176.328415 
	C462.740265,178.099319 461.591492,179.920898 463.382263,182.494812 
	C465.908661,180.351929 468.372528,178.262100 471.156128,175.988403 
M359.550598,174.164566 
	C359.740814,175.185959 360.502563,175.689026 361.331177,175.284485 
	C366.996674,172.518341 371.256500,168.182587 374.479218,162.851898 
	C375.115112,161.800049 375.115479,160.260651 373.857452,159.247604 
	C367.448181,160.165161 363.908447,163.726089 359.550598,174.164566 
M301.667236,161.571533 
	C301.833313,160.687668 302.660797,159.760590 301.233490,158.745392 
	C295.030670,162.266724 288.931244,166.065842 284.073730,171.587891 
	C290.259552,169.120789 296.085693,166.118073 301.667236,161.571533 
z"/>
<path fill="#000000" opacity="1.000000" stroke="none" 
	d="
M175.436798,145.936584 
	C179.432648,147.126053 177.086792,149.598709 176.538025,151.376923 
	C172.514084,164.416077 168.309128,177.399353 164.169983,190.403030 
	C163.623657,192.119385 162.808884,193.789139 163.110031,195.942627 
	C165.266190,196.349442 166.458588,194.988785 167.462265,193.518616 
	C173.394577,184.828903 178.845886,175.910065 180.701431,165.295670 
	C181.027634,163.429596 180.919693,160.623734 183.709335,161.053207 
	C186.596603,161.497711 185.415039,164.338196 185.228851,166.055542 
	C184.674301,171.171219 183.777176,176.251465 182.945328,181.334320 
	C182.701065,182.826813 182.517441,184.242828 182.933746,185.762390 
	C184.100388,190.020844 185.689865,190.519684 189.237228,187.793030 
	C190.508759,186.815659 190.972824,184.827484 192.973877,184.788635 
	C193.116669,184.785858 193.262070,184.918289 193.406265,184.987869 
	C192.483948,189.937134 188.149429,193.364059 182.994598,193.358871 
	C175.853058,193.351669 178.798157,187.280045 177.251572,183.643723 
	C174.016876,187.883087 172.336349,192.937408 168.474258,196.445114 
	C167.124054,197.671417 165.730103,198.910583 164.170227,199.827698 
	C162.634598,200.730576 160.871048,201.746643 159.041489,200.460281 
	C157.224792,199.182938 157.405563,197.140930 157.860443,195.434021 
	C159.401932,189.649765 161.096878,183.902023 162.899353,178.192764 
	C165.199463,170.907211 167.661285,163.672714 170.140213,156.152893 
	C165.902374,155.901535 163.954636,157.915710 162.758713,161.469559 
	C159.305023,171.732666 155.684280,181.942398 149.254211,190.849350 
	C146.581451,194.551651 143.696991,197.958878 138.849075,198.815414 
	C138.358643,198.902054 137.735275,199.294113 137.412415,199.114670 
	C131.182648,195.652664 128.778015,201.278915 125.190186,204.156021 
	C124.163780,204.979095 122.944176,205.575943 121.772308,206.199814 
	C119.471313,207.424805 116.867287,208.138916 114.622040,206.746307 
	C112.057175,205.155502 112.857605,202.420914 113.351601,199.926071 
	C113.569481,198.825729 113.388321,197.646347 113.388321,196.191650 
	C109.381470,198.010681 106.420517,201.864044 101.681839,201.228073 
	C95.175789,200.354874 98.933365,194.332169 96.476540,191.139084 
	C93.151054,195.120636 90.512512,199.824036 85.975578,202.847046 
	C82.740349,205.002747 79.343391,206.468246 75.720543,204.633789 
	C72.386757,202.945694 72.681961,199.403900 72.721054,196.212357 
	C72.929489,179.196716 77.551163,163.811005 89.415489,151.114685 
	C90.207283,150.267349 91.060135,149.432663 92.019676,148.795547 
	C94.179314,147.361633 96.578644,146.508438 99.072357,147.727554 
	C101.643250,148.984390 101.634689,151.571747 101.296753,153.857925 
	C99.896767,163.328888 94.439903,169.802551 86.044273,174.091949 
	C83.404655,175.440536 79.865608,175.472626 79.147476,179.680527 
	C77.973892,186.557159 75.657806,193.380066 79.228409,200.157440 
	C80.609085,202.778137 82.680626,201.636856 84.271675,200.359100 
	C90.989693,194.964005 96.221489,188.356155 99.511024,180.370255 
	C102.747643,172.512833 106.276222,164.812759 111.086472,157.791824 
	C113.498016,154.271988 116.394485,151.334717 121.392998,152.277283 
	C124.738564,152.908173 124.613724,149.879852 125.068138,148.030075 
	C128.045624,135.909622 131.342514,123.889755 135.671844,112.174095 
	C136.323624,110.410316 136.576233,108.118515 139.308060,108.246956 
	C140.886414,109.949326 139.484131,111.448494 139.095673,112.949829 
	C134.721786,129.854156 129.198715,146.560638 126.295547,163.711487 
	C124.321411,175.374008 119.421768,186.298447 118.785316,198.169037 
	C118.690544,199.936722 117.549301,202.084824 119.701660,203.084198 
	C121.656151,203.991730 123.057480,202.172440 124.391518,200.979218 
	C128.650558,197.169724 131.253723,193.141296 132.105469,186.765533 
	C133.751373,174.444992 137.589569,162.435623 145.361389,152.187943 
	C147.345749,149.571442 149.702347,147.737000 152.999222,148.994370 
	C156.575882,150.358444 155.676636,153.770782 155.238556,156.387512 
	C153.974823,163.936096 149.868210,170.301041 146.007828,176.721313 
	C143.605606,180.716492 141.062073,184.626785 138.575256,188.570953 
	C137.226395,190.710281 136.407806,193.072296 138.799728,194.787033 
	C141.040588,196.393463 142.483704,194.101730 143.768692,192.759155 
	C149.274170,187.006882 152.746140,180.008011 155.660858,172.700760 
	C157.202942,168.834747 158.732803,164.963196 160.202621,161.069382 
	C160.785919,159.524155 161.560944,157.864380 160.849533,156.240280 
	C159.985443,154.267563 159.285995,152.375977 161.435059,150.935562 
	C164.241089,149.054825 164.928970,152.428024 166.640930,153.323257 
	C170.966171,152.613846 172.614624,148.824768 175.436798,145.936584 
M118.261070,176.903549 
	C119.596481,171.245255 120.899017,165.578857 122.286560,159.933380 
	C122.725235,158.148560 122.534630,156.580872 121.088844,155.415237 
	C119.417542,154.067795 117.973244,155.170731 116.561737,156.078384 
	C114.837906,157.186890 113.610497,158.756378 112.554779,160.468445 
	C108.843971,166.486282 106.459839,172.988358 105.252533,179.961884 
	C104.539978,184.077652 103.756775,188.190445 104.767776,192.318253 
	C105.780586,196.453400 107.275391,196.750031 110.486679,194.098770 
	C115.681175,189.810165 116.712830,183.716248 118.261070,176.903549 
M85.263031,171.623657 
	C92.017723,167.732574 97.096291,162.484253 98.596100,154.546875 
	C98.880501,153.041794 99.236824,151.038284 97.308990,150.097885 
	C95.707001,149.316422 94.373878,150.456894 93.213684,151.307312 
	C86.826439,155.989273 83.795738,162.813019 81.730560,170.115738 
	C80.913200,173.006027 82.844353,172.623383 85.263031,171.623657 
M150.506821,151.873627 
	C141.883591,160.149414 140.957047,171.443466 138.394501,182.132401 
	C143.663116,174.667877 149.146088,167.394440 151.950455,158.619980 
	C152.702423,156.267197 152.929779,153.890884 150.506821,151.873627 
z"/>
<path fill="#000000" opacity="1.000000" stroke="none" 
	d="
M79.707176,219.279755 
	C81.449249,220.320007 82.909279,221.125092 84.320885,222.007645 
	C86.104538,223.122787 88.559525,223.848480 88.087791,226.655594 
	C87.639160,229.325165 85.127487,229.567596 83.135841,230.195740 
	C76.172935,232.391769 69.016953,232.080109 61.946476,231.157059 
	C51.412434,229.781815 40.934612,227.978745 30.428036,226.389664 
	C15.893138,224.191330 10.666809,215.822815 15.769403,201.877808 
	C20.733061,188.312469 29.087172,177.289993 42.302700,170.688232 
	C46.206711,168.738022 47.939442,166.353943 47.773899,161.798935 
	C47.418312,152.014725 47.664787,142.208633 46.847252,132.095230 
	C33.664959,137.317200 23.136536,145.295319 13.609876,154.878265 
	C12.871566,151.544388 12.704907,151.341080 15.806454,148.798630 
	C23.655392,142.364563 31.283131,135.520798 40.669373,131.341904 
	C44.952198,129.435135 47.116177,126.974548 47.107510,122.015785 
	C47.096016,115.442627 47.933681,108.867981 48.426132,102.020058 
	C43.744778,101.645004 39.081219,103.327789 34.991432,99.728493 
	C32.330940,105.255684 29.910976,110.331116 27.443607,115.383400 
	C26.567326,117.177704 25.678671,118.980957 24.611830,120.663567 
	C23.146271,122.975044 21.429144,126.722122 18.404863,124.374100 
	C16.111439,122.593498 17.357935,118.981079 19.322132,116.536392 
	C21.144487,117.306297 20.101135,118.885750 21.031960,119.838417 
	C21.390232,119.577217 21.892435,119.393677 22.091164,119.039734 
	C28.532688,107.567154 34.972355,96.121536 35.708511,82.479462 
	C35.922710,78.510132 37.056595,74.608032 38.777222,70.968712 
	C39.525204,69.386650 40.004265,67.412170 42.411003,67.223671 
	C44.425941,69.067894 44.112103,71.419273 43.566242,73.655441 
	C42.541878,77.851807 41.406082,82.027763 40.116753,86.149689 
	C39.504768,88.106178 39.165466,90.041504 39.377789,92.038589 
	C39.756802,95.603477 41.691887,97.926773 45.314034,98.394310 
	C48.652119,98.825180 49.984138,96.616760 50.813820,93.799675 
	C51.913177,90.066933 53.777992,86.690376 56.601627,84.016594 
	C58.281475,82.425896 60.500233,80.811760 62.827885,82.555862 
	C65.121567,84.274513 63.565887,86.537323 62.735432,88.451103 
	C61.595341,91.078461 59.945866,93.507271 57.660378,95.171257 
	C54.176380,97.707832 53.071556,100.894363 53.264950,105.079674 
	C53.494972,110.057770 53.418995,115.065720 52.486290,120.021530 
	C52.188438,121.604111 52.059853,123.327423 53.297813,125.237801 
	C65.474625,123.017090 77.144035,117.739128 90.691933,117.249542 
	C88.767197,120.083054 86.572235,120.087997 84.612015,120.355370 
	C75.181480,121.641701 66.106628,124.340172 57.007973,127.006233 
	C53.573925,128.012451 52.042614,129.814163 52.308331,133.450455 
	C53.045795,143.542511 53.595322,153.647690 53.360466,163.681961 
	C56.874031,164.887924 59.439339,161.435547 62.739109,163.103775 
	C61.967625,165.391190 59.684303,165.235336 58.078552,165.908264 
	C55.189392,167.118973 53.903393,169.076904 54.476173,172.173264 
	C56.447830,182.831650 59.070206,193.233002 64.259598,202.925354 
	C67.916214,209.754898 72.724655,215.221924 79.707176,219.279755 
M50.236767,226.952988 
	C60.711948,228.770035 71.182343,230.102798 82.128654,226.738174 
	C55.940491,216.926178 51.876804,193.943420 48.122227,170.706039 
	C42.922844,172.769135 38.795876,175.312408 35.249073,178.545212 
	C25.593771,187.345642 17.473646,197.139343 17.186853,211.140671 
	C17.050692,217.788071 19.068785,220.575180 25.371893,222.467651 
	C33.197468,224.817261 41.347111,225.496994 50.236767,226.952988 
M58.098148,86.055328 
	C56.900974,87.978142 55.179768,89.731148 55.668667,92.545685 
	C58.334309,91.356926 59.584633,89.399467 60.441360,87.291496 
	C61.136314,85.581558 60.438927,84.719841 58.098148,86.055328 
z"/>
<path fill="#000000" opacity="1.000000" stroke="none" 
	d="
M202.193085,172.442017 
	C205.041870,163.671524 207.691589,155.254898 211.805481,147.412033 
	C213.591248,144.007568 215.726105,140.799942 218.840973,138.448212 
	C222.545029,135.651657 225.266129,136.620514 226.754501,141.081711 
	C227.410385,143.047684 227.535431,145.043320 226.848877,146.967255 
	C224.956497,152.270279 221.733719,156.638260 217.209549,160.007874 
	C216.155945,160.792603 215.014603,161.522705 212.780563,160.320099 
	C215.293030,158.000244 217.673386,156.074295 219.719528,153.841980 
	C222.095551,151.249771 223.941162,148.222687 224.522888,144.684311 
	C224.817749,142.890823 224.817413,140.743942 222.711563,139.961304 
	C220.734024,139.226334 219.603394,141.008743 218.826309,142.364639 
	C217.176590,145.243057 215.452438,148.174210 214.437469,151.303818 
	C210.854370,162.352112 206.343124,173.148621 204.844131,184.794998 
	C204.654510,186.268326 204.285645,187.782867 204.454788,189.224960 
	C204.825409,192.384644 206.628998,193.419876 209.228592,191.352173 
	C215.432556,186.417557 220.604187,180.454987 223.482941,173.072144 
	C224.752747,169.815567 227.683624,166.595520 225.650345,162.324371 
	C224.947540,160.848068 226.962921,159.742996 228.349609,159.258759 
	C240.740387,154.931747 249.600021,145.254761 260.238251,138.280304 
	C265.247162,134.996445 270.041016,131.381226 275.801331,129.427002 
	C277.694336,128.784775 279.558899,128.102417 281.537872,128.877182 
	C281.968201,130.053635 281.179230,130.493164 280.416687,130.741470 
	C264.797333,135.827530 253.471512,147.596313 240.296722,156.483780 
	C238.317078,157.819199 238.772003,159.586975 239.461121,161.371521 
	C242.031128,168.026947 242.404663,175.018082 242.216614,182.001419 
	C242.099487,186.350830 241.128815,190.681564 236.965637,193.277145 
	C228.732849,198.409927 222.490616,194.537292 221.073471,182.671265 
	C218.645050,186.274551 216.043869,188.956116 213.354752,191.556000 
	C211.780304,193.078201 210.067795,194.354553 208.066147,195.247925 
	C201.744781,198.069260 198.040253,195.734711 198.819870,188.921173 
	C199.439865,183.502441 200.938629,178.184265 202.193085,172.442017 
M227.643280,178.053406 
	C227.148819,180.867477 227.155670,183.642700 228.143707,186.376846 
	C228.971329,188.667114 229.203522,191.571320 232.444687,191.698288 
	C235.739075,191.827362 237.795486,189.578690 238.570496,186.789536 
	C240.807358,178.739426 239.768524,170.759857 237.154068,162.946762 
	C236.793549,161.869415 236.123688,160.687729 234.712860,160.862366 
	C233.473236,161.015823 232.660767,161.956528 232.367661,163.156433 
	C231.194916,167.957397 227.791931,172.040833 227.643280,178.053406 
z"/>
<path fill="#000000" opacity="1.000000" stroke="none" 
	d="
M199.072296,126.485306 
	C199.132126,126.935936 199.154144,127.142204 199.061691,127.252350 
	C197.768219,128.792923 197.130005,131.345947 194.314316,130.631989 
	C193.256226,130.363708 192.509277,129.326508 193.198120,128.361465 
	C194.573532,126.434586 196.389511,125.132889 199.072296,126.485306 
z"/>
</svg>